<!-- Generated by IcoMoon.io -->
<svg version="1.1" xmlns="http://www.w3.org/2000/svg" width="1325" height="1024" viewBox="0 0 1325 1024">
<title>LibraryIcon</title>
<g id="icomoon-ignore">
</g>
<path d="M1204.706 30.118c-66.861-21.082-140.348-30.118-210.824-30.118-117.459 0-243.953 24.094-331.294 90.353-87.341-66.259-213.835-90.353-331.294-90.353s-243.953 24.094-331.294 90.353v882.447c0 15.059 15.059 30.118 30.118 30.118 6.024 0 9.035-3.012 15.059-3.012 81.318-39.153 198.776-66.259 286.118-66.259 117.459 0 243.953 24.094 331.294 90.353 81.318-51.2 228.894-90.353 331.294-90.353 99.388 0 201.788 18.071 286.118 63.247 6.024 3.012 9.035 3.012 15.059 3.012 15.059 0 30.118-15.059 30.118-30.118v-879.435c-36.141-27.106-75.294-45.176-120.471-60.235zM1204.706 843.294c-66.259-21.082-138.541-30.118-210.824-30.118-102.4 0-249.976 39.153-331.294 90.353v-692.706c81.318-51.2 228.894-90.353 331.294-90.353 72.282 0 144.565 9.035 210.824 30.118v692.706z"></path>
<path d="M993.882 361.412c53.007 0 104.207 5.421 150.588 15.661v-91.558c-47.586-9.035-98.786-14.456-150.588-14.456-102.4 0-195.162 17.468-271.059 49.995v99.991c68.066-38.551 162.635-59.633 271.059-59.633z"></path>
<path d="M722.824 481.29v99.991c68.066-38.551 162.635-59.633 271.059-59.633 53.007 0 104.207 5.421 150.588 15.661v-91.558c-47.586-9.035-98.786-14.456-150.588-14.456-102.4 0-195.162 18.071-271.059 49.995z"></path>
<path d="M993.882 592.118c-102.4 0-195.162 17.469-271.059 49.996v99.991c68.066-38.551 162.635-59.633 271.059-59.633 53.007 0 104.207 5.421 150.588 15.661v-91.558c-47.586-9.639-98.786-14.458-150.588-14.458z"></path>
</svg>
