<svg width="50" height="46" viewBox="0 0 50 46" fill="none" xmlns="http://www.w3.org/2000/svg">
<path d="M18.25 45.25H38.5C40.3675 45.25 41.965 44.125 42.64 42.505L49.435 26.6425C49.6375 26.125 49.75 25.585 49.75 25V20.5C49.75 18.025 47.725 16 45.25 16H31.0525L33.19 5.7175L33.2575 4.9975C33.2575 4.075 32.875 3.22 32.2675 2.6125L29.8825 0.25L15.055 15.0775C14.245 15.8875 13.75 17.0125 13.75 18.25V40.75C13.75 43.225 15.775 45.25 18.25 45.25ZM18.25 18.25L28.015 8.485L25 20.5H45.25V25L38.5 40.75H18.25V18.25ZM0.25 18.25H9.25V45.25H0.25V18.25Z" fill="#A6ABB9"/>
</svg>
